<?xml version="1.0" standalone="no"?>
<!DOCTYPE svg PUBLIC "-//W3C//DTD SVG 20010904//EN"
 "http://www.w3.org/TR/2001/REC-SVG-20010904/DTD/svg10.dtd">
<svg version="1.0" xmlns="http://www.w3.org/2000/svg"
 width="474.000000pt" height="437.000000pt" viewBox="0 0 474.000000 437.000000"
 preserveAspectRatio="xMidYMid meet">

<g transform="translate(0.000000,437.000000) scale(0.100000,-0.100000)"
fill="#000000" stroke="none">
<path d="M2214 4006 c-66 -40 -172 -102 -235 -138 -63 -37 -154 -90 -204 -118
-49 -29 -193 -112 -320 -185 -126 -72 -275 -158 -330 -190 -111 -65 -249 -144
-367 -212 l-78 -44 0 -964 0 -965 37 -23 c21 -13 261 -152 533 -309 700 -403
675 -389 894 -516 l200 -116 35 20 c20 11 173 99 341 196 168 97 528 304 800
461 l495 285 3 969 2 969 -42 24 c-79 43 -662 378 -1285 738 -183 106 -338
192 -345 192 -7 -1 -67 -34 -134 -74z m401 -657 c373 -217 490 -284 670 -390
l160 -94 0 -458 0 -458 -544 1 c-299 0 -548 3 -552 6 -5 3 -9 88 -9 190 l0
184 365 0 365 0 1 138 c0 75 2 145 4 154 6 30 -23 51 -225 168 -107 62 -259
151 -338 197 -79 45 -151 83 -160 83 -10 0 -67 -29 -127 -65 -60 -36 -110 -65
-111 -65 -5 0 -470 -273 -478 -281 -10 -9 -19 -1039 -10 -1039 3 0 50 -9 104
-20 185 -38 372 -116 536 -226 l82 -54 83 57 c178 120 401 206 613 238 116 17
341 20 381 5 l25 -10 -2 -186 -3 -186 -180 -1 c-164 -2 -189 -5 -278 -30 -232
-67 -351 -138 -533 -319 l-102 -101 -83 88 c-154 162 -317 262 -529 326 -99
30 -116 32 -290 35 -102 2 -188 3 -192 4 -5 0 -8 367 -8 815 l0 814 43 25 c85
49 914 530 977 567 36 22 70 39 75 39 6 0 127 -68 270 -151z"/>
<path d="M4135 3406 c-119 -54 -119 -211 0 -256 73 -28 166 29 180 109 17 100
-90 188 -180 147z m95 -21 c73 -38 93 -122 42 -182 -73 -85 -222 -21 -208 90
10 83 94 129 166 92z"/>
<path d="M4146 3334 c-18 -17 -22 -109 -6 -119 6 -3 10 5 10 19 0 32 20 45 34
22 24 -40 35 -51 42 -43 5 4 2 17 -5 28 -10 18 -10 24 3 38 22 24 20 48 -3 61
-28 14 -57 12 -75 -6z m71 -20 c9 -25 -24 -46 -48 -31 -10 6 -19 20 -19 29 0
24 58 25 67 2z"/>
</g>
</svg>
